# xmcd
#
# Track frame offsets: 
#        150
#        16422
#        32546
#        47860
#        63491
#        80296
#        97879
#        113605
#        129314
#        145712
#        162704
#        177462
#
# Disc length: 2553 seconds
#
# Revision: 2
# Processed by: cddbd v1.5.2PL0 Copyright (c) Steve Scherf et al.
# Submitted via: ExactAudioCopy v1.1
#
DISCID=9709f70c
DTITLE=Fernando Express - Urlaub für die Seele
DYEAR=2005
DGENRE=Schlager
TTITLE0=Barfuß bis ans Ende der Welt
TTITLE1=Liebe gibt und Liebe nimmt
TTITLE2=Urlaub für die Seele
TTITLE3=La Isla Felicita
TTITLE4=Und ein Traum geht auf die Reise
TTITLE5=Zeit für starke Gefühle
TTITLE6=Wieviele Stunden hat die Ewigkeit
TTITLE7=Das Lächeln des Sommers
TTITLE8=Ein spanisches Märchen
TTITLE9=Du bist mein schönstes Gefühl
TTITLE10=Vino in Portofino
TTITLE11=Träumer können fliegen
EXTD=
EXTT0=
EXTT1=
EXTT2=
EXTT3=
EXTT4=
EXTT5=
EXTT6=
EXTT7=
EXTT8=
EXTT9=
EXTT10=
EXTT11=
PLAYORDER=
